/* XPM */
static char *_334d4acb6d8452db6015b88f9c44133stl4OUZI1SOoNx2i[] = {
/* columns rows colors chars-per-pixel */
"30 30 143 2 ",
"   c #D61920",
".  c #D61A20",
"X  c #D61D22",
"o  c #D61F23",
"O  c #D62023",
"+  c #D62325",
"@  c #D62425",
"#  c #D72828",
"$  c #D72A28",
"%  c #D72A29",
"&  c #D83730",
"*  c #D83831",
"=  c #D83E35",
"-  c #D84137",
";  c #D94237",
":  c #D94238",
">  c #D94338",
",  c #DC473C",
"<  c #DD483D",
"1  c #D94F41",
"2  c #DA4F42",
"3  c #DB5647",
"4  c #DB594A",
"5  c #DB5C4C",
"6  c #DB5C4D",
"7  c #DD6350",
"8  c #DD6351",
"9  c #DD6653",
"0  c #DE6653",
"q  c #DD6958",
"w  c #DD6A5A",
"e  c #DD6C5B",
"r  c #DE6C5C",
"t  c #DE6E5D",
"y  c #E18673",
"u  c #E28976",
"i  c #E2907C",
"p  c #E2907D",
"a  c #E2917E",
"s  c #E49480",
"d  c #E49581",
"f  c #E59683",
"g  c #E49C8A",
"h  c #E6A08E",
"j  c #E6A18F",
"k  c #E7A18F",
"l  c #E5A593",
"z  c #E7A795",
"x  c #E7AB9C",
"c  c #E8AB99",
"v  c #E9AB9A",
"b  c #EAAE9C",
"n  c #EBAE9D",
"m  c #EBB1A3",
"M  c #EAB6A4",
"N  c #EAB4A6",
"B  c #EBB5A7",
"V  c #E9B7A6",
"C  c #ECB9A8",
"Z  c #E8BAAC",
"A  c #EFC0AF",
"S  c #ECC0B2",
"D  c #E9C3B7",
"F  c #ECC7B7",
"G  c #EBC5B8",
"H  c #ECC8BA",
"J  c #ECCBBD",
"K  c #ECCDBE",
"L  c #F0CCBF",
"P  c #ECCFC3",
"I  c #F0CDC0",
"U  c #F1CDC1",
"Y  c #EFD2C4",
"T  c #EED7CB",
"R  c #EDDACF",
"E  c #F3D0C1",
"W  c #F2D6C9",
"Q  c #F4D6C8",
"!  c #F4D7C9",
"~  c #F5DBCF",
"^  c #EFDCD2",
"/  c #EEDFD5",
"(  c #F2DFD3",
")  c #F5DFD3",
"_  c #EEE5DD",
"`  c #F4E1D5",
"'  c #F2E3D9",
"]  c #F7E5DB",
"[  c #F6E7DE",
"{  c #F8E7DC",
"}  c #F4E8DE",
"|  c #EFE8E1",
" . c #EEEBE6",
".. c #EEEDE7",
"X. c #EDEDEC",
"o. c gray93",
"O. c #F1EAE3",
"+. c #F5EAE0",
"@. c #F1ECE4",
"#. c #F9EBE2",
"$. c #F0F0EF",
"%. c #FBF3EC",
"&. c #FAF3ED",
"*. c #FCF6EE",
"=. c #EFF0F0",
"-. c gray94",
";. c #F1F1F0",
":. c #F1F1F1",
">. c #F2F1F0",
",. c #F3F2F1",
"<. c gray95",
"1. c #F3F3F3",
"2. c #F4F3F0",
"3. c #F5F4F0",
"4. c #F6F5F1",
"5. c #F5F4F2",
"6. c #F6F5F3",
"7. c #F7F5F3",
"8. c #F7F6F2",
"9. c #F4F4F4",
"0. c gray96",
"q. c #F6F5F4",
"w. c #F6F6F5",
"e. c #F7F7F5",
"r. c #F6F6F6",
"t. c gray97",
"y. c #FCF7F1",
"u. c #F8F7F4",
"i. c #F8F7F7",
"p. c #F9F9F7",
"a. c #FCFBF4",
"s. c #FDFAF5",
"d. c #F8F8F8",
"f. c #F9F9F9",
"g. c #FAFAF9",
"h. c gray98",
"j. c #FBFBFA",
"k. c #FBFBFB",
"l. c #FCFCFB",
"z. c #FCFBFC",
"x. c gray99",
"c. c #FEFEFD",
"v. c #FEFEFE",
/* pixels */
"v.f.o.<.v.t.o.t.v.t.o.z.v.-.o.v.z.o.<.v.d.o.t.v.1.o.z.v.=.o.",
"v.f.<.<.v.t.o.8.a.$.-.d.z.<.-.z.f.$.<.j.8...8.z.t.o.f.z.<.=.",
"o.-.v.f. .H s 7 , 0 s F  .z.v.o.$.s.P a 0 , 7 p K s.<.o.v.v.",
"<.<.j.` q       . . . . q { f.<.( r               q T <.f.z.",
"v.j.K &                   3 ^ +.2                   * Q <.o.",
"d.[ -                       y u                       : ' 9.",
"o.a                                                     s v.",
"[ $                                                     $ +.",
"U                                                         D ",
"N                                                         N ",
"x                                                         m ",
"Z                                                         Z ",
") . . .                                                   Y ",
"@.>   .                                                 - *.",
"o.g                                                     k v.",
"v.{ +                                                 @ R o.",
"z.j.g                                                 g <.<.",
"o.-.%.4                                             3 _ v.v.",
"-.<.z.W %                                         $ Y <.f.z.",
"v.z.o.<.A                                       X N f.v.o.o.",
"t.t.<.t.p.c     .                               v 8.t.t.t.9.",
"o.<.v.f.o.8.b   . .                           z 8.v.=.o.f.v.",
"t.t.t.t.t.t.8.N O .                     . X C 7.t.t.t.t.t.t.",
"v.f.o.o.v.t.X.t.U =                   . = F t.v.t.o.f.v.o.o.",
"t.t.t.t.<.t.t.t.<.` q                 q ( d.t.<.t.d.9.9.t.t.",
"X.o.v.f.X.t.v.t.o.t.y.l X           l O.9.v.t.o.d.v.<.o.v.v.",
"f.f.<.1.f.f.o.t.f.t.-.i.Q 6     5 J $.j.t.-.t.f.t.<.d.z.<.<.",
"v.z.o.<.v.f.o.t.v.9.o.j.v.O.l v %.o.<.v.d.o.t.v.<.o.f.v.o.o.",
"<.<.v.f.<.t.f.t.-.i.j.<.-.f.j.-.<.z.f.<.t.f.t.$.t.z.<.o.f.v.",
"o.=.v.f.o.<.v.t.o.d.v.<.o.v.v.o.-.v.f.o.9.v.t.o.f.v.<.o.v.v."
};
