/* XPM */
static char *de3b46c9e7ec44afb4d8e1c73206ecba5khRcYEMO7QUEHfj[] = {
/* columns rows colors chars-per-pixel */
"30 30 196 2 ",
"   c #967A43",
".  c #967A44",
"X  c #977B45",
"o  c #987C45",
"O  c #997D46",
"+  c #9B7E48",
"@  c #A1844C",
"#  c #A2854D",
"$  c #A2854E",
"%  c #A2864F",
"&  c #A5874F",
"*  c #A5884F",
"=  c #AD8E55",
"-  c #AF8E55",
";  c #AE8F55",
":  c #AE9056",
">  c #AE925F",
",  c #B09257",
"<  c #B19258",
"1  c #B5965A",
"2  c #B5965B",
"3  c #B8985D",
"4  c #B8995D",
"5  c #B9995D",
"6  c #BA9A5E",
"7  c #BB9B5E",
"8  c #BE9A5F",
"9  c #BD9C5F",
"0  c #9E907B",
"q  c #A99166",
"w  c #A6906D",
"e  c #AB936D",
"r  c #AD936C",
"t  c #AF976F",
"y  c #BE9E61",
"u  c #BF9E61",
"i  c #B2996E",
"p  c #B49A6E",
"a  c #AC9671",
"s  c #AF9872",
"d  c #AE9874",
"f  c #AF9975",
"g  c #AC9879",
"h  c #AF9B7A",
"j  c #AE9A7B",
"k  c #B19D7C",
"l  c #BFA16C",
"z  c #C09F62",
"x  c #C0A062",
"c  c #C1A062",
"v  c #C2A163",
"b  c #C3A264",
"n  c #C3A364",
"m  c #C6A466",
"M  c #C7A566",
"N  c #C6A567",
"B  c #C7A666",
"V  c #C8A667",
"C  c #C9A767",
"Z  c #C9A768",
"A  c #CAA969",
"S  c #CBA969",
"D  c #CCAA6A",
"F  c #CDAB6A",
"G  c #CDAB6B",
"H  c #D0AE6D",
"J  c #D5B270",
"K  c #D8B472",
"L  c #D8B572",
"P  c #D9B572",
"I  c #DBB774",
"U  c #DCB875",
"Y  c #DDB975",
"T  c #DFBB77",
"R  c #D2B37E",
"E  c #E0BC77",
"W  c #E1BC78",
"Q  c #E3BE79",
"!  c #E3BF79",
"~  c #E5C07A",
"^  c #E8C27C",
"/  c #EAC57E",
"(  c #EBC57E",
")  c #ECC67E",
"_  c #ECC67F",
"`  c #66798F",
"'  c #83878C",
"]  c #888889",
"[  c #998F81",
"{  c #908F8D",
"}  c #928F8D",
"|  c #94908D",
" . c #97928C",
".. c #99938C",
"X. c #9D968C",
"o. c #A69B8B",
"O. c #AE9F88",
"+. c #B19E81",
"@. c #B29F8A",
"#. c #B3A083",
"$. c #B0A189",
"%. c #B4A38B",
"&. c #B7A58A",
"*. c #B1A28C",
"=. c #B8A68A",
"-. c #BEAA8A",
";. c #A6A099",
":. c #B5A793",
">. c #B6A894",
",. c #B9AD9C",
"<. c #A0A0A0",
"1. c #A7A6A5",
"2. c #BCB1A1",
"3. c #BEB2A1",
"4. c #BCB1A2",
"5. c #C2AC89",
"6. c #D9BB87",
"7. c #D0B588",
"8. c #C9B391",
"9. c #C2B39D",
"0. c #D1B995",
"q. c #D3BB96",
"w. c #D5BD97",
"e. c #C2B5A3",
"r. c #C1B7A9",
"t. c #C1B8AB",
"y. c #C4BAAC",
"u. c #E3C082",
"i. c #E0C087",
"p. c #E1C087",
"a. c #E2C187",
"s. c #EEC880",
"d. c #EFC981",
"f. c #EEC985",
"g. c #F0C881",
"h. c #F1CA82",
"j. c #F1CB82",
"k. c #F2CB83",
"l. c #F4CA83",
"z. c #F4CB83",
"x. c #F3CD84",
"c. c #F2CC85",
"v. c #F3CD85",
"b. c #F4CD84",
"n. c #F5CD84",
"m. c #F4CE84",
"M. c #F5CE84",
"N. c #F4CE85",
"B. c #F5CE85",
"V. c #C9C0B5",
"C. c #C9C1B6",
"Z. c #CBC3B9",
"A. c #CCC5BC",
"S. c #CEC6BC",
"D. c #D1C9C0",
"F. c #D2CDC6",
"G. c #D5D0C9",
"H. c #D6D1CA",
"J. c #D7D2CB",
"K. c #DBD5CE",
"L. c #DCD9D4",
"P. c #E2DDD7",
"I. c #E2E1DF",
"U. c #E6E3DF",
"Y. c #E6E4E1",
"T. c #E7E6E5",
"R. c #E7E7E7",
"E. c #EAE8E5",
"W. c gray91",
"Q. c #EEEDEB",
"!. c gray93",
"~. c #EEEEEE",
"^. c #F1F0EF",
"/. c #F2F2F1",
"(. c #F3F3F3",
"). c #F4F4F4",
"_. c gray96",
"`. c #F6F6F6",
"'. c #F8F7F7",
"]. c #F8F8F7",
"[. c #F9F8F7",
"{. c #F9F8F8",
"}. c #F9F9F8",
"|. c #F9F9F9",
" X c #FAF9F9",
".X c #FAFAF9",
"XX c gray98",
"oX c #FBFAFA",
"OX c #FBFBFB",
"+X c #FCFCFB",
"@X c gray99",
"#X c #FDFCFC",
"$X c #FDFDFD",
"%X c #FEFDFD",
"&X c #FEFEFE",
"*X c white",
/* pixels */
"&X&X&X&X&X&X&X&X&X&X&X&X&X&X&X&XOX&X&X&X&X&X&X&X&X&X&X&X&XoX",
"&X&X&X&X&X&X&X&X&X&XD.d 4 b A w.0.8.9.K.&X&X&X&X&X&X&X&X&X&X",
"&X&X&X&X&X&X&X&X&X&X>.^ M.M.M.M.M.M.^ :.&X&X&X&X&X&X&X&X&X&X",
"&X&X&X&X&X&X&X&X&XZ.$.4 B.M.M.M.M.M.4 *.T.oX&X&X&X&X&X&X&X&X",
"&X&X&X&X&X&X&X&X$ I ^ z ! M.B.B.M.Q z ^ L $ &X&X&X&X&X&X&X&X",
"&X&X&X&X&X&X&X&XZ.J n.( 2 B.M.M.M.1 ( M.J 2.&X&X&X&X&X&X&X&X",
"&X&X&X&X&X&X&X&X'.,.z u.p 7.p.p.R p i.l V.&X&X&X&X&X&X&X&X&X",
"&X&X&X&X&X&X&X&X@XE.1.' 5.-.-.-.-.-.0 ;.&X&X&X&X&X&X&X&X&X&X",
"&X&X&X&X&X&X&X&X&X<.` 6.M.B.M.B.B.B.B.H %./.&X&X&X&X&X&X&X&X",
"&X&X&X&X&X&X&XoX[ o. .M.M.B.B.B.B.B.B.B.Q a oX%X&X&X&X&X&X&X",
"&X&X&X&X&X&XQ.w ] 7.5.M.B.M.M.B.M.B.B.M.M.s.a oX&X&X&X&X&X&X",
"&X&X&X&X&XoXe #.7.&.i.M.B.M.N.B.B.B.B.B.M.B.^ e &X&X&X&X&X&X",
"&X&X&X&X&Xe.Q { N...v.B.B.B.: : M.M.B.B.B.B.B.! +.&X&X&X&X&X",
"&X&X&X&XP.J i.=.M.X.M.M.B.~ * & ~ M.B.M.B.B.M.B.K 4.&X&X&X&X",
"&X&X&XH.y M.N.N.M.| M.M.L . . . . K B.B.B.B.M.B.M.y H.&X&X&X",
"&X&X/.q h.N.N.M.N.| M.M.$ : k.k.< % B.B.B.B.M.M.M.h.q T.&X&X",
"&X).r.K M.M.M.M.B.k.M.M.O z c.B.W G M.M.B.B.M.B.B.M.L r.[.&X",
"/.I.q M.M.M.M.M.B.B.B.B.z O G c.B.B.M.M.B.B.B.B.B.B.B.q I.&X",
").V.K M.B.B.M.M.B.B.M.B.k.z . - ^ l.M.M.B.B.B.B.B.B.B.L V.&X",
"~.j h.M.B.B.B.B.B.B.c.M.B.c.I @ O E M.M.B.B.M.B.B.M.B.k.j &X",
"&X4 B.B.B.B.B.M.B.B.B.B.B.M.M.g.: & B.B.B.B.B.B.B.B.B.B.4 &X",
"#Xw.B.B.B.B.B.M.B.B.M.B.. N M.M.N . B.B.B.B.B.B.B.B.B.B.C &X",
"&XC M.B.B.M.M.M.M.B.c.c.y O N Z + 8 B.M.B.B.M.B.B.M.M.M.C %X",
"&Xy B.B.B.M.B.M.M.M.M.k.s.y . . 4 g.B.B.B.B.B.B.B.M.M.M.z '.",
"&Xd N.M.M.M.M.M.B.B.M.B.B.M.: : M.M.M.B.B.B.B.B.B.B.B.c.s &X",
"&XS.b M.M.M.M.M.B.B.M.M.B.M.J J M.M.B.M.M.M.M.B.B.M.M.G J.&X",
"&XoX4.b h.M.M.M.B.B.B.B.B.B.B.B.B.B.B.B.M.M.M.M.c.h.V 4.&X&X",
"&X&XW.F.k M E N.B.B.M.B.B.M.B.M.M.M.M.c.c.M.g.E M k E._.&X&X",
"&X&X&X&XQ.T.t.$.i < b b b Z Z A Z b b 8 - e @.t.L._.oX&X&X&X",
"&X&X&X&X&X&X&X&XOXOX{.{.{.'.'.'.{.{.{.{.OX&X&X&X&X%X&X&X&X&X"
};
