/* XPM */
static char *_306d343deaa47d9dfe96cbf03034485ZJRODLxg4LUqaQLG[] = {
/* columns rows colors chars-per-pixel */
"30 30 59 1 ",
"  c black",
". c black",
"X c black",
"o c black",
"O c black",
"+ c black",
"@ c black",
"# c #010100",
"$ c black",
"% c black",
"& c black",
"* c #7AA63B",
"= c #FFD467",
"- c black",
"; c #79A53A",
": c #FFD366",
"> c #81B13E",
", c #FFD265",
"< c #86B640",
"1 c #7DAB3C",
"2 c #8ABD43",
"3 c #FFE56F",
"4 c #FFDF6C",
"5 c #FFD969",
"6 c white",
"7 c #FFED73",
"8 c #FFF578",
"9 c #2B3B14",
"0 c #1C260C",
"q c #394F1A",
"w c #90C545",
"e c #D2BE5C",
"r c #456020",
"t c #180E05",
"y c #DDCC63",
"u c #597B2A",
"i c #C4B155",
"p c #506E25",
"a c #61862E",
"s c #A79446",
"d c #6E9735",
"f c #688F32",
"g c #635026",
"h c #749E37",
"j c #B7A34E",
"k c #E7DC6B",
"l c #887437",
"z c #4E3D20",
"x c #EED165",
"c c #78642E",
"v c #97833E",
"b c #F2E26E",
"n c #F5EB73",
"m c #3C2710",
"M c #E9E9E9",
"N c #6C6C6C",
"B c #D5D5D5",
"V c #BBBBBB",
"C c #9B9B9A",
/* pixels */
"666666666666666666666666666666",
"666666666666666666666666666666",
"666666666666666xe6666666666666",
"66666666666666yxx6666666666666",
"6666666666666eyxxe666666666666",
"6666666666666y=:xy666666666666",
"6666666666666x,=5x666666666666",
"666666666666iyxxxx666666666666",
"666666666666ex=xxxe66666666666",
"666666666666eVx:VB666666666666",
"666666666666bBx=yBe66666666666",
"666666666666,,x,=,e66666666666",
"666666d*df;ix:xx=xihdfu6666666",
"66666f;h*h*jx,x:=xifhf66666666",
"66666d*hh*hjx,xxxyh*h666666666",
"66666d;dd*djxx,xx***a666666666",
"66666du6p*dj=xxxs**h6666666666",
"666666666*dsx=xi;**f6666666666",
"666666666d*v:x=s***a6666666666",
"666666666f*;exeh***f6666666666",
"6666666666;*1xi*;**p6666666666",
"6666666666p;*j1d**;66666666666",
"66666666666dhdfh;*;66666666666",
"66666666666d;hfh;*h66666666666",
"66666666666ahdhhhhf66666666666",
"666666666666ff1hhhu66666666666",
"6666666666666phhfp666666666666",
"6666666666666fuu66666666666666",
"666666666666666666666666666666",
"666666666666666666666666666666"
};
