/* XPM */
static char *_b1c0599331a48b3ff94b61e02a21edbvXiOSAOvEozkotSf[] = {
/* columns rows colors chars-per-pixel */
"30 30 220 2 ",
"   c #4D3032",
".  c #523233",
"X  c #533233",
"o  c #543334",
"O  c #593535",
"+  c #5A3535",
"@  c #593536",
"#  c #5A3737",
"$  c #5C3636",
"%  c #5F3636",
"&  c #5F3736",
"*  c #5F3637",
"=  c #613737",
"-  c #623738",
";  c #643539",
":  c #653539",
">  c #653638",
",  c #613939",
"<  c #713A3B",
"1  c #733A3C",
"2  c #783C3D",
"3  c #5C3E40",
"4  c #5D3E40",
"5  c #5E4245",
"6  c #5F4345",
"7  c #634B50",
"8  c #634C51",
"9  c #644F54",
"0  c #655054",
"q  c #665358",
"w  c #685B61",
"e  c #6E5B61",
"r  c #67626C",
"t  c #69636A",
"y  c #6E626B",
"u  c #716B73",
"i  c #726C73",
"p  c #73737D",
"a  c #73737E",
"s  c #75737E",
"d  c #7A737E",
"f  c #803E40",
"g  c #843F41",
"h  c #8B4042",
"j  c #904244",
"k  c #984448",
"l  c #9A4449",
"z  c #A3474C",
"x  c #AA494E",
"c  c #AD4A4C",
"v  c #AD4A4D",
"b  c #AC4A4F",
"n  c #AD4A4F",
"m  c #B14B50",
"M  c #B54C51",
"N  c #B84D52",
"B  c #C15054",
"V  c #C25055",
"C  c #C45155",
"Z  c #C85257",
"A  c #CA5357",
"S  c #CD5357",
"D  c #CD5458",
"F  c #CE5458",
"G  c #CF5458",
"H  c #D15559",
"J  c #D25559",
"K  c #7F7F89",
"L  c #7C7F8B",
"P  c #7D7F8B",
"I  c #817D89",
"U  c #D87F81",
"Y  c #7D808B",
"T  c #7DD2EF",
"R  c #848590",
"E  c #828894",
"W  c #838894",
"Q  c #878B97",
"!  c #888B97",
"~  c #838D99",
"^  c #87929E",
"/  c #87929F",
"(  c #88929E",
")  c #88929F",
"_  c #9D9292",
"`  c #9D9392",
"'  c #9E9494",
"]  c #AB8F90",
"[  c #A29897",
"{  c #A49A9A",
"}  c #A49B9A",
"|  c #A59C9B",
" . c #9199A5",
".. c #95A0AE",
"X. c #99A5B3",
"o. c #ADA8A8",
"O. c #B1A8A9",
"+. c #B3AAAB",
"@. c #B5ADAE",
"#. c #B6ADAE",
"$. c #B7AFB0",
"%. c #B6B1B1",
"&. c #B7B2B3",
"*. c #B3B2B4",
"=. c #B9B1B2",
"-. c #B9B2B2",
";. c #BBB2B3",
":. c #BBB3B4",
">. c #B9B5B7",
",. c #B6B5B8",
"<. c #BEB9B9",
"1. c #DC9798",
"2. c #CEABAB",
"3. c #C3B8B8",
"4. c #C0BCBC",
"5. c #D5B9BA",
"6. c #ACB1C5",
"7. c #BDBEC1",
"8. c #BCBFC4",
"9. c #C1B8C6",
"0. c #C4BAC7",
"q. c #D0BFC8",
"w. c #BFC2C7",
"e. c #80D3EF",
"r. c #83D3EF",
"t. c #85D4EF",
"y. c #9FD9EF",
"u. c #85D4F0",
"i. c #8DD5F0",
"p. c #8FD5F0",
"a. c #8FD8F1",
"s. c #92D6F0",
"d. c #92D7F1",
"f. c #95D7F1",
"g. c #96D7F0",
"h. c #98D7F1",
"j. c #99D8F0",
"k. c #9DDAF0",
"l. c #A2D9F1",
"z. c #A2DBF1",
"x. c #A9DAF1",
"c. c #AADCF0",
"v. c #AFDDF0",
"b. c #B1DCF1",
"n. c #B4DFF2",
"m. c #BFE1EE",
"M. c #BCE1F1",
"N. c #B9E3F5",
"B. c #BDE3F4",
"V. c #C5C1C1",
"C. c #C5C1C2",
"Z. c #C8C5C5",
"A. c #C9C5C5",
"S. c #CAC6C7",
"D. c #CCC7C7",
"F. c #C1C4C8",
"G. c #DBC7C7",
"H. c #DCC7C8",
"J. c #DFC7CC",
"K. c #DFCBCC",
"L. c #D9D7D7",
"P. c #E0CACB",
"I. c #E7C8C9",
"U. c #E1CECF",
"Y. c #E8C9C9",
"T. c #E8C9CA",
"R. c #E9CACB",
"E. c #E9CBCB",
"W. c #E9CBCC",
"Q. c #EACCCD",
"!. c #EBCDCD",
"~. c #DDE9EF",
"^. c #C9E6F2",
"/. c #D4E9F3",
"(. c #D6EBF4",
"). c #D8EFF9",
"_. c #DCF0FA",
"`. c #EEEEEE",
"'. c #F3EBEB",
"]. c #EAF1F5",
"[. c #EAF2F5",
"{. c #EBF2F5",
"}. c #EBF2F6",
"|. c #EBF3F6",
" X c #EFF2F4",
".X c #EEF3F5",
"XX c #ECF4F7",
"oX c #EDF4F7",
"OX c #EEF4F7",
"+X c #E3F1F8",
"@X c #EDF4F8",
"#X c #EEF5F8",
"$X c gray94",
"%X c #F1F1F1",
"&X c #F3F0F0",
"*X c #F1F2F1",
"=X c gray95",
"-X c #F3F3F3",
";X c #F1F4F5",
":X c #F2F6F7",
">X c #F4F4F4",
",X c #F5F5F4",
"<X c #F4F5F5",
"1X c gray96",
"2X c #F4F5F6",
"3X c #F6F6F6",
"4X c gray97",
"5X c #F0F6F8",
"6X c #F0F6F9",
"7X c #F2F6F8",
"8X c #F7F8F8",
"9X c #F8F8F8",
"0X c #F8F9F9",
"qX c #F9F9F9",
"wX c gray98",
"eX c #FBFBFB",
"rX c gray99",
"tX c #FDFDFD",
"yX c #FEFEFE",
"uX c white",
/* pixels */
"1XrX`.rX=XrX1X1XrX=XrX$XrX1X1X9X=XrX`.rX1X9X9X=XrX=XrX=X9X9X",
"9X=XrX=XrX=X9X9X=XrX=XrX=X9X9X1XrX`.rX1X9X1X1XrX=XrX=X9X1X1X",
"1XrX=XrX>X9X8X1X9X=XrX=XrX1X1X9X1XrX1X9X1X1X9X1XrX1X9X1X9X9X",
"9X1X9X1X9X1X8X1X9X9X1X9X1X1X9X9X9X1X9X1X9X9X1X9X1X9X1X9X1X1X",
"9X1X9X1X7X|.XXXX>X9X1X9X1XoXoX.XoX1X8X1X4X1X|..X|.#X1X9X1X8X",
"1X9X1X9Xz.u.j.r.v.1X9X1XoXe.p.f.T (.1X9X1X^.T f.p.u.7X1X1X9X",
"9X1XrX1X#Xf.b.k.oXrX>XrX>X/.s.l.B.=XrX-X9X4XN.x.s.+X=X9X1X9X",
"1XrX`.rX=X7Xt..X9X=XrX`.rX1Xm.c.=XrX`.rX1X4X1Xy._.`.rX=X9X9X",
"9X=XrX`.rX=Xp.4X=XrX`.rX-X9X).B.tX`.rX=X9X4X>XB.`.tX'.4X1X>X",
"=XU.H.P.H.P.6.E.!.E.!.E.!.R.q.0.E.!.I.Q.E.E.E.9.H.Y.!.I.E.'.",
"2.n n n n Z J J J J J J J J J J J J H H J J J J S H J J J 1.",
"5.n n n n C J J J J J J J J J J J J J H J J J J H H S S S 1.",
"1X3.> > > > 1 2 2 2 2 2 2 2 2 2 2 2 2 2 2 2 2 2 2 2 2 2 ] 8X",
"9X4.        o @ O O O O @ @ @ @ @ o + + o + + + @ @ @ @ ` 1X",
"1XS.        O $ O O + O + @ @ @ + + + + @ + @ + + + @ + | 9X",
"9X<.  > z N S J N < + + g x B H J c + @ + k m S J J g + ` >X",
"1XS.  l n D J J J c @ = c M J J J J h + 2 n V J H H D + } 8X",
"9X4.  o o y ! e & & @ + $ & I Q = = @ O & = , ! d = = + ` 8X",
"1XC.      r ~ w O O O O @ @ Y ~ @ @ + + + @ # ~ s + @ @ [ 8X",
"1XC.      r ~ w O O O O @ @ Y ~ @ @ + + + @ # ~ s @ @ @ [ 8X",
"9X<.      a ) i @ @ @ O @ 6 E ) 7 O O O + O 0 ^ Y # # @ ' 1X",
"1XS.    t X.X.X.0 O @ + @ R X.X. .O O O + O ..X.X.R # @ } 9X",
"9X<.      a ) u + O O O + 5 W ) 8 O O O O O 0 ^ Y # @ @ ` 1X",
"1XS.      r ~ w O O O + + + P ~ O O O O O O @ ~ s + @ @ | 9X",
"9XL.-.o.-.*.w.>.+.-.+.:.@.$.7.8.&.+.:.+.$.@.@.F.,.:.+.-.D.1X",
"1X9X1X8X1X9X1X8X9X1X9X1X9X1X1X9X1X9X1X8X1X9X9X1X9X1X9X1X8X8X",
"1X9X1X9X1X9X1X1X4X1X9X1X9X1X1X9X1X9X1X8X1X9X9X8X9X1X9X4X8X1X",
"9X1X9X1X9X1X9X9X1X9X1X9X1X9X9X1X9X>X9X1X9X1X1X9X1X9X1X9X8X1X",
"1XeX1XrX-X9X8X1X9X=XrX=X9X1X1X9X1XrX=XeX1X9X9X1XrX=XeX>X8X8X",
"9X=XrX`.rX-X9X9X1XrX=XrX=X9X9X1XrX`.rX=X9X1X1XrX'.rX=XrX1X1X"
};
